<svg xmlns="http://www.w3.org/2000/svg" viewBox="0 0 104.64 104.58"><defs><style>.cls-1{fill:#c2d0d3;}.cls-2,.cls-6,.cls-7{fill:#fff;}.cls-3{fill:#92b7bb;}.cls-4{fill:#303030;}.cls-5{fill:#ede6e6;}.cls-6{opacity:0.23;}.cls-7,.cls-8{opacity:0;}.cls-8{fill:#fdeedc;}</style></defs><title>Asset 68</title><g id="Layer_2" data-name="Layer 2"><g id="Layer_1-2" data-name="Layer 1"><rect class="cls-1" x="1.61" y="32.38" width="8.5" height="64.27"/><rect class="cls-2" x="1.61" y="32.38" width="8.5" height="1.54"/><rect class="cls-3" x="1.61" y="91.21" width="8.5" height="5.43"/><path class="cls-4" d="M5.22,39.66A.25.25,0,0,1,5,39.41V32.53a.25.25,0,0,1,.25-.25.26.26,0,0,1,.25.25v6.88A.25.25,0,0,1,5.22,39.66Z"/><path class="cls-4" d="M6.63,96.58a.25.25,0,0,1-.25-.25V89.45a.25.25,0,0,1,.25-.25.25.25,0,0,1,.25.25v6.88A.25.25,0,0,1,6.63,96.58Z"/><circle class="cls-3" cx="3.55" cy="91.13" r="0.9"/><circle class="cls-3" cx="4.59" cy="89.26" r="0.32"/><circle class="cls-3" cx="2.96" cy="88.12" r="0.38"/><circle class="cls-3" cx="8.33" cy="91.31" r="0.94"/><circle class="cls-3" cx="5.67" cy="91.13" r="0.47"/><circle class="cls-3" cx="5.44" cy="89.96" r="0.16"/><circle class="cls-3" cx="8.33" cy="89.04" r="0.32"/><circle class="cls-3" cx="7.15" cy="87.82" r="0.11"/><circle class="cls-3" cx="5.46" cy="88.25" r="0.32"/><circle class="cls-2" cx="7.45" cy="34.11" r="0.62"/><circle class="cls-2" cx="7" cy="35.47" r="0.26"/><circle class="cls-2" cx="6.57" cy="33.85" r="0.5"/><circle class="cls-2" cx="8.63" cy="35.84" r="0.24"/><circle class="cls-2" cx="8.77" cy="35.08" r="0.11"/><circle class="cls-2" cx="8.86" cy="33.91" r="0.33"/><circle class="cls-2" cx="8.68" cy="34.74" r="0.21"/><circle class="cls-2" cx="8.27" cy="35.42" r="0.16"/><circle class="cls-2" cx="8.1" cy="36.72" r="0.43"/><circle class="cls-2" cx="6.72" cy="36.77" r="0.13"/><circle class="cls-2" cx="6.87" cy="35.31" r="0.13"/><polygon class="cls-2" points="90.88 31.62 67.84 31.62 71.84 10.53 86.88 10.53 90.88 31.62"/><path class="cls-5" d="M90.56,31.21H72.43a5.52,5.52,0,0,1-.18-1.29c0-2,1.65-2.4,3.82-2.4,1.4,0,3,.17,4.56.17,3.41,0,5.61-.86,5.61-4.23,0-3.06-1.2-5.05-1.2-8.89a11.05,11.05,0,0,1,.86-4.46h.66Z"/><path class="cls-4" d="M89.86,58.91h-.75a9.95,9.95,0,0,0-19.89,0h-.75a10.7,10.7,0,0,1,21.39,0Z"/><rect class="cls-4" x="78.79" y="34.4" width="0.75" height="14.49"/><polygon class="cls-4" points="91.52 32 67.58 32 69.39 23.28 70.12 23.43 68.5 31.25 90.62 31.25 86.76 10.9 72.35 10.9 71.16 17.18 70.42 17.04 71.73 10.15 87.38 10.15 91.52 32"/><rect class="cls-4" x="85.8" y="32.21" width="0.75" height="9.24"/><path class="cls-4" d="M86.2,47.47a3.2,3.2,0,1,1,3.2-3.2A3.2,3.2,0,0,1,86.2,47.47Zm0-5.65a2.45,2.45,0,1,0,2.45,2.45A2.45,2.45,0,0,0,86.2,41.82Z"/><path class="cls-2" d="M54.16,32.85h0A21.11,21.11,0,0,1,75.26,54v.16a0,0,0,0,1,0,0H33a0,0,0,0,1,0,0V54A21.11,21.11,0,0,1,54.16,32.85Z"/><path class="cls-5" d="M53.86,36.87h0A21.11,21.11,0,0,1,75,58v.16a0,0,0,0,1,0,0H32.75a0,0,0,0,1,0,0V58A21.11,21.11,0,0,1,53.86,36.87Z"/><path class="cls-4" d="M75.21,54.49h-43V54a21.48,21.48,0,1,1,43,0ZM33,53.74H74.46a20.73,20.73,0,0,0-41.46,0Z"/><path class="cls-2" d="M35.37,47.36H70.81A21.26,21.26,0,0,1,92.07,68.62v0a0,0,0,0,1,0,0h-78a0,0,0,0,1,0,0v0A21.26,21.26,0,0,1,35.37,47.36Z"/><path class="cls-2" d="M35.13,43.34H70.57A21.26,21.26,0,0,1,91.84,64.61v0a0,0,0,0,1,0,0h-78a0,0,0,0,1,0,0v0A21.26,21.26,0,0,1,35.13,43.34Z"/><path class="cls-5" d="M35.07,47.26H70.51A21.26,21.26,0,0,1,91.77,68.53v0a0,0,0,0,1,0,0h-78a0,0,0,0,1,0,0v0A21.26,21.26,0,0,1,35.07,47.26Z"/><path class="cls-4" d="M91.91,64.88H13.19v-.37A21.67,21.67,0,0,1,34.83,42.87H70.27A21.67,21.67,0,0,1,91.91,64.51Zm-78-.75H91.16A20.92,20.92,0,0,0,70.27,43.62H34.83A20.92,20.92,0,0,0,13.94,64.13Z"/><rect class="cls-1" x="9.39" y="53.56" width="85.3" height="31.66"/><path class="cls-6" d="M9.39,53.56H34.73a0,0,0,0,1,0,0v0a9,9,0,0,1-9,9H9.39a0,0,0,0,1,0,0v-9A0,0,0,0,1,9.39,53.56Z"/><path class="cls-2" d="M9.39,53.56h21a0,0,0,0,1,0,0v0a5.63,5.63,0,0,1-5.63,5.63H9.39a0,0,0,0,1,0,0V53.56a0,0,0,0,1,0,0Z"/><rect class="cls-3" x="9.55" y="81.38" width="85.3" height="4"/><path class="cls-4" d="M95.06,85.91H9V53.5H95.06Zm-85.3-.75H94.31V54.25H9.76Z"/><rect class="cls-1" x="94.88" y="32.47" width="8.51" height="64.27"/><rect class="cls-3" x="94.88" y="91.75" width="8.51" height="4.99"/><path class="cls-4" d="M10.24,97H1V32h9.26Zm-8.51-.75H9.49V32.75H1.73Z"/><path class="cls-4" d="M103.8,97H94.55V32h9.25Zm-8.5-.75h7.75V32.75H95.3Z"/><path class="cls-4" d="M98.47,39.5a.25.25,0,0,1-.25-.25V32.38a.25.25,0,0,1,.25-.25.25.25,0,0,1,.25.25v6.87A.25.25,0,0,1,98.47,39.5Z"/><path class="cls-4" d="M99.88,96.42a.25.25,0,0,1-.25-.25V89.29a.26.26,0,0,1,.25-.25.25.25,0,0,1,.25.25v6.88A.25.25,0,0,1,99.88,96.42Z"/><path class="cls-4" d="M91.23,83.19H13V56.7H91.23Zm-77.73-.5H90.73V57.2H13.5Z"/><rect class="cls-7" y="96.98" width="104.35" height="7.6"/><rect class="cls-8" x="0.29" width="104.35" height="7.6" transform="translate(104.94 7.6) rotate(180)"/><circle class="cls-2" cx="20.93" cy="49.4" r="0.24"/><circle class="cls-2" cx="21.95" cy="49.23" r="0.22"/><circle class="cls-2" cx="26.37" cy="49.77" r="0.36"/><circle class="cls-2" cx="22.73" cy="49.78" r="0.11"/><circle class="cls-2" cx="25.46" cy="49.11" r="0.15"/></g></g></svg>