<svg xmlns="http://www.w3.org/2000/svg" viewBox="0 0 104.64 104.58"><defs><style>.cls-1,.cls-3{fill:#fff;}.cls-1,.cls-2{opacity:0;}.cls-2{fill:#fdeedc;}.cls-4{fill:#f5d4a9;}.cls-5{fill:#f2b770;}.cls-6{fill:#303030;}.cls-7{fill:#e9bf8b;}.cls-8{fill:#e7ba86;}</style></defs><title>Asset 67</title><g id="Layer_2" data-name="Layer 2"><g id="Layer_1-2" data-name="Layer 1"><rect class="cls-1" y="96.98" width="104.35" height="7.6"/><rect class="cls-2" x="0.29" width="104.35" height="7.6" transform="translate(104.94 7.6) rotate(180)"/><circle class="cls-3" cx="26.37" cy="49.77" r="0.36"/><circle class="cls-3" cx="25.46" cy="49.11" r="0.15"/><rect class="cls-4" x="9.42" y="86.79" width="6.95" height="10.34"/><rect class="cls-4" x="88.51" y="86.79" width="6.95" height="10.34"/><rect class="cls-5" x="9.42" y="86.79" width="6.95" height="3.19"/><rect class="cls-5" x="88.51" y="86.79" width="6.95" height="3.19"/><path class="cls-6" d="M16.74,97.5H9V86.41h7.7Zm-6.95-.75H16V87.16H9.79Z"/><path class="cls-6" d="M95.83,97.5h-7.7V86.41h7.7Zm-7-.75h6.2V87.16h-6.2Z"/><rect class="cls-4" x="5.44" y="24.63" width="94.6" height="62.26"/><rect class="cls-7" x="9.63" y="61.51" width="40.95" height="1.96"/><rect class="cls-7" x="9.02" y="42.19" width="40.95" height="1.96"/><rect class="cls-7" x="54.12" y="42.19" width="40.95" height="1.96"/><rect class="cls-7" x="54.35" y="61.51" width="40.95" height="1.96"/><rect class="cls-7" x="54.35" y="80.37" width="40.95" height="1.96"/><rect class="cls-7" x="9.33" y="80.52" width="40.95" height="1.96"/><rect class="cls-3" x="9.33" y="47.44" width="40.95" height="1.96"/><rect class="cls-3" x="54.58" y="47.51" width="40.95" height="1.96"/><rect class="cls-3" x="54.58" y="28.27" width="40.95" height="1.96"/><rect class="cls-3" x="9.55" y="66.45" width="40.95" height="1.48"/><rect class="cls-3" x="54.42" y="66.45" width="40.95" height="1.48"/><path class="cls-3" d="M5.44,24.63h25a0,0,0,0,1,0,0v.19a4.51,4.51,0,0,1-4.51,4.51H5.44a0,0,0,0,1,0,0v-4.7A0,0,0,0,1,5.44,24.63Z"/><rect class="cls-7" x="5.44" y="82.84" width="94.6" height="4.05"/><rect class="cls-6" x="9.56" y="78.06" width="10.89" height="0.75"/><rect class="cls-6" x="22.39" y="78.06" width="3.19" height="0.75"/><path class="cls-6" d="M50.91,44.81h-42v-17h42ZM9.64,44.06H50.16V28.56H9.64Z"/><path class="cls-6" d="M96,44.81H54v-17H96Zm-41.26-.75H95.23V28.56H54.72Z"/><path class="cls-6" d="M50.91,64h-42V47h42ZM9.64,63.2H50.16V47.71H9.64Z"/><path class="cls-6" d="M96,64H54V47H96ZM54.72,63.2H95.23V47.71H54.72Z"/><path class="cls-6" d="M50.91,83.1h-42v-17h42ZM9.64,82.35H50.16V66.85H9.64Z"/><path class="cls-6" d="M96,83.1H54v-17H96Zm-41.26-.75H95.23V66.85H54.72Z"/><path class="cls-6" d="M100.11,87H4.76V24h95.35Zm-94.6-.75H99.36V24.7H5.51Z"/><rect class="cls-6" x="23.45" y="35.48" width="12.02" height="1.83" rx="0.88"/><rect class="cls-6" x="70.14" y="35.48" width="12.02" height="1.83" rx="0.88"/><rect class="cls-6" x="23.45" y="54.8" width="12.02" height="1.83" rx="0.88"/><rect class="cls-6" x="70.14" y="54.8" width="12.02" height="1.83" rx="0.88"/><rect class="cls-6" x="23.45" y="73.81" width="12.02" height="1.83" rx="0.88"/><rect class="cls-6" x="70.14" y="73.81" width="12.02" height="1.83" rx="0.88"/><circle class="cls-3" cx="16.88" cy="29.52" r="0.61"/><circle class="cls-3" cx="19.54" cy="30.82" r="0.53"/><circle class="cls-3" cx="18.06" cy="31.16" r="0.27"/><circle class="cls-3" cx="18.44" cy="30.04" r="0.14"/><circle class="cls-3" cx="18.83" cy="29.6" r="0.51"/><circle class="cls-3" cx="20.3" cy="29.47" r="0.28"/><circle class="cls-3" cx="20.94" cy="30.49" r="0.3"/><circle class="cls-3" cx="19.88" cy="32.6" r="0.14"/><circle class="cls-3" cx="18.43" cy="32.36" r="0.15"/><circle class="cls-3" cx="17.03" cy="31.17" r="0.1"/><circle class="cls-3" cx="17.7" cy="30.12" r="0.09"/><circle class="cls-3" cx="18.92" cy="31.99" r="0.16"/><circle class="cls-3" cx="20.57" cy="31.84" r="0.42"/><circle class="cls-3" cx="21.8" cy="29.49" r="0.54"/><circle class="cls-3" cx="21.94" cy="30.97" r="0.32"/><circle class="cls-3" cx="15.51" cy="29.73" r="0.58"/><circle class="cls-3" cx="16.24" cy="31.24" r="0.27"/><circle class="cls-3" cx="17.08" cy="30.73" r="0.45"/><rect class="cls-4" x="1.26" y="18.12" width="102.24" height="6.47" transform="translate(104.77 42.72) rotate(180)"/><polygon class="cls-8" points="1.43 20.96 103.45 21 103.45 23.82 1.25 24.15 1.43 20.96"/><polygon class="cls-6" points="103.69 24.58 0.7 24.58 0.7 17.71 39.67 17.71 39.67 18.46 1.45 18.46 1.45 23.83 102.94 23.83 102.94 18.46 43.12 18.46 43.12 17.71 103.69 17.71 103.69 24.58"/><rect class="cls-6" x="92" y="20.66" width="11.71" height="0.75"/></g></g></svg>