<?xml version="1.0" encoding="UTF-8"?>
<svg width="184px" height="1333px" viewBox="0 0 184 1333" version="1.1" xmlns="http://www.w3.org/2000/svg" xmlns:xlink="http://www.w3.org/1999/xlink">
    <!-- Generator: Sketch 55.2 (78181) - https://sketchapp.com -->
    <title>Group 20</title>
    <desc>Created with Sketch.</desc>
    <g id="Welcome" stroke="none" stroke-width="1" fill="none" fill-rule="evenodd">
        <g id="Desktop-HD-Copy-5" transform="translate(-1256.000000, -1673.000000)">
            <g id="Group-20" transform="translate(1256.000000, 1676.000000)">
                <g id="Group-18" transform="translate(90.000000, 0.000000)" stroke="#FE627A" stroke-width="3">
                    <circle id="Oval-Copy-5" cx="23" cy="79" r="24.5"></circle>
                    <circle id="Oval" cx="64.5" cy="8.5" r="10"></circle>
                </g>
                <rect id="Rectangle-Copy-2" stroke="#FE627A" stroke-width="3" transform="translate(87.000000, 1250.000000) rotate(28.000000) translate(-87.000000, -1250.000000) " x="29.5" y="1192.5" width="115" height="115"></rect>
                <g id="Asset-2-Copy-3" transform="translate(0.000000, 586.000000)" fill="#FBCF99" fill-rule="nonzero">
                    <g id="Group-2">
                        <g id="Group" opacity="0.2">
                            <ellipse id="Oval" cx="20.8581818" cy="95.7757143" rx="20.3236364" ry="20.3714286"></ellipse>
                            <path d="M53.6401691,94.6242857 C53.6293551,99.6237076 55.6024872,104.422397 59.1251817,107.961683 C62.6478762,111.50097 67.4306568,113.490014 72.4183636,113.49 L201.031636,113.49 C211.438639,114.125916 220.389484,106.185047 221.023909,95.7535714 C221.658333,85.3220961 213.736094,76.3502023 203.329091,75.7142857 L172.004182,75.7142857 C171.23903,75.7595816 170.471879,75.7595816 169.706727,75.7142857 C160.258514,74.5695928 153.158746,66.5207584 153.182727,56.9814286 C153.182727,46.5621823 161.60938,38.1157143 172.004182,38.1157143 L220.604182,38.1157143 C230.998984,38.1157141 239.425636,29.6692462 239.425636,19.25 C239.425636,8.83075382 230.998984,0.384285714 220.604182,0.384285714 L91.8583636,0.384285714 C85.1341055,0.384285714 78.9206347,3.98007042 75.5585056,9.81714278 C72.1963765,15.6542151 72.1963765,22.8457849 75.5585056,28.6828572 C78.9206347,34.5199296 85.1341055,38.1157144 91.8583636,38.1157143 L105.952364,38.1157143 C115.926792,38.0791957 124.197581,45.8487166 124.807361,55.8279668 C125.417142,65.807217 118.154137,74.5303972 108.249818,75.7142857 C107.484667,75.7595816 106.717515,75.7595816 105.952364,75.7142857 L70.1650909,75.7142857 C60.6594616,76.8856187 53.547048,85.0250366 53.6401691,94.6242857 Z" id="Path"></path>
                        </g>
                        <circle id="Oval" opacity="0.22" cx="71" cy="174" r="28"></circle>
                    </g>
                </g>
            </g>
        </g>
    </g>
</svg>