<?xml version="1.0" encoding="UTF-8"?>
<svg width="188px" height="613px" viewBox="0 0 188 613" version="1.1" xmlns="http://www.w3.org/2000/svg" xmlns:xlink="http://www.w3.org/1999/xlink">
    <!-- Generator: Sketch 55.2 (78181) - https://sketchapp.com -->
    <title>Group 21</title>
    <desc>Created with Sketch.</desc>
    <defs>
        <filter x="-50.0%" y="-50.0%" width="200.0%" height="200.0%" filterUnits="objectBoundingBox" id="filter-1">
            <feGaussianBlur stdDeviation="2" in="SourceGraphic"></feGaussianBlur>
        </filter>
        <filter x="-50.0%" y="-50.0%" width="200.0%" height="200.0%" filterUnits="objectBoundingBox" id="filter-2">
            <feGaussianBlur stdDeviation="1" in="SourceGraphic"></feGaussianBlur>
        </filter>
    </defs>
    <g id="Welcome" stroke="none" stroke-width="1" fill="none" fill-rule="evenodd">
        <g id="Desktop-HD-Copy-5" transform="translate(0.000000, -1811.000000)">
            <g id="Group-21" transform="translate(-51.000000, 1811.000000)">
                <g id="Asset-2-Copy-5" fill="#FBCF99" fill-rule="nonzero">
                    <g id="Group-2">
                        <g id="Group" opacity="0.2">
                            <path d="M53.1056237,94.24 C53.0948097,99.2394219 55.0679417,104.038111 58.5906362,107.577397 C62.1133308,111.116684 66.8961114,113.105728 71.8838182,113.105714 L200.497091,113.105714 C210.904094,113.741631 219.854939,105.800761 220.489363,95.3692857 C221.123788,84.9378104 213.201548,75.9659166 202.794545,75.33 L171.469636,75.33 C170.704485,75.3752958 169.937333,75.3752958 169.172182,75.33 C159.723969,74.1853071 152.624201,66.1364727 152.648182,56.5971429 C152.648182,46.1778966 161.074834,37.7314286 171.469636,37.7314286 L220.069636,37.7314286 C230.464439,37.7314284 238.891091,29.2849605 238.891091,18.8657143 C238.891091,8.4464681 230.464439,-1.3500312e-13 220.069636,-1.3500312e-13 L91.3238182,-1.3500312e-13 C84.5995601,-1.3500312e-13 78.3860893,3.59578471 75.0239602,9.43285706 C71.6618311,15.2699294 71.6618311,22.4614992 75.0239602,28.2985715 C78.3860893,34.1356439 84.5995601,37.7314287 91.3238182,37.7314286 L105.417818,37.7314286 C115.392247,37.6949099 123.663036,45.4644309 124.272816,55.4436811 C124.882596,65.4229312 117.619591,74.1461115 107.715273,75.33 C106.950121,75.3752958 106.18297,75.3752958 105.417818,75.33 L69.6305455,75.33 C60.1249162,76.501333 53.0125025,84.6407509 53.1056237,94.24 Z" id="Path"></path>
                        </g>
                        <circle id="Oval" opacity="0.22" cx="70.4654545" cy="173.615714" r="28"></circle>
                    </g>
                </g>
                <g id="Group-4-Copy-3" transform="translate(94.000000, 415.000000)" fill="#FE627A">
                    <g id="Group-4-Copy-2">
                        <g id="Group-3" transform="translate(0.000000, 41.000000)">
                            <circle id="Oval-Copy" filter="url(#filter-1)" cx="6" cy="147" r="6"></circle>
                            <circle id="Oval-Copy-8" filter="url(#filter-2)" cx="95" cy="100" r="3"></circle>
                            <circle id="Oval-Copy-3" cx="45.5" cy="4.5" r="4.5"></circle>
                        </g>
                        <circle id="Oval-Copy-2" cx="3" cy="3" r="3"></circle>
                    </g>
                </g>
            </g>
        </g>
    </g>
</svg>