<svg xmlns="http://www.w3.org/2000/svg" viewBox="0 0 1920.59 1003.04"><defs><style>.cls-1{fill:#f9fafd;}.cls-2{fill:#d2ddfc;}</style></defs><title>Asset 6</title><g id="Layer_2" data-name="Layer 2"><g id="Layer_1-2" data-name="Layer 1"><path class="cls-1" d="M1920.59,41v962H.59V100s683,132,971,62S1439.59-1,1920.59,41Z"/><path class="cls-1" d="M1058.09,127.54s215.31-73,351.56-93.16a15.77,15.77,0,0,0,13.44-15.62h0a15.79,15.79,0,0,0-19-15.46C1346.69,15.22,1172.05,55.7,1058.09,127.54Z"/><polygon class="cls-2" points="1686.09 16.79 1673.5 30.46 1689.13 32.22 1686.09 16.79"/><polygon class="cls-2" points="1677.07 48.51 1726.05 53.8 1690.3 34.15 1677.07 48.51"/><polygon class="cls-2" points="1700.82 0.79 1688.23 14.46 1703.86 16.22 1700.82 0.79"/><polygon class="cls-2" points="1703.2 17.76 1687.58 16 1690.62 31.43 1703.2 17.76"/><polygon class="cls-2" points="1672.84 32.01 1675.88 47.43 1688.47 33.76 1672.84 32.01"/><polygon class="cls-2" points="1717.93 1.76 1702.31 0 1705.35 15.42 1717.93 1.76"/><polygon class="cls-2" points="1691.42 32.93 1727.48 52.74 1704.76 18.44 1691.42 32.93"/><polygon class="cls-2" points="1728.41 51.23 1719.11 2.85 1705.88 17.22 1728.41 51.23"/><polygon class="cls-2" points="1747.88 19.95 1737.03 15.07 1739.12 24.92 1747.88 19.95"/><polygon class="cls-2" points="1726.78 20.88 1733.45 51.7 1738.18 26.02 1726.78 20.88"/><polygon class="cls-2" points="1760.57 25.68 1749.73 20.79 1751.81 30.64 1760.57 25.68"/><polygon class="cls-2" points="1750.74 30.55 1748.65 20.7 1739.9 25.66 1750.74 30.55"/><polygon class="cls-2" points="1735.96 14.98 1727.2 19.94 1738.05 24.83 1735.96 14.98"/><polygon class="cls-2" points="1763.43 36.27 1761.35 26.42 1752.59 31.38 1763.43 36.27"/><polygon class="cls-2" points="1739.14 26.45 1734.38 52.36 1750.64 31.63 1739.14 26.45"/><polygon class="cls-2" points="1735.49 52.62 1763 37.2 1751.61 32.07 1735.49 52.62"/><polygon class="cls-2" points="56.92 320.36 31.52 296.98 28.26 326.02 56.92 320.36"/><polygon class="cls-2" points="24.66 328.18 0.59 371.99 0.59 306.02 24.66 328.18"/><polygon class="cls-2" points="86.64 347.73 61.25 324.35 57.98 353.38 86.64 347.73"/><polygon class="cls-2" points="55.11 352.14 58.38 323.13 29.73 328.77 55.11 352.14"/><polygon class="cls-2" points="28.65 295.76 0 301.41 25.39 324.79 28.65 295.76"/><polygon class="cls-2" points="84.84 379.51 88.1 350.49 59.45 356.14 84.84 379.51"/><polygon class="cls-2" points="53.85 355.05 0.59 390.33 0.59 378.21 26.93 330.27 53.85 355.05"/><polygon class="cls-2" points="82.81 381.7 0.59 397.52 0.59 393.92 56.13 357.14 82.81 381.7"/><polygon class="cls-2" points="51.03 435.14 60.11 414.99 41.81 418.87 51.03 435.14"/><polygon class="cls-2" points="49.31 395.96 39.77 417.12 0.59 409.92 0.59 406.5 49.31 395.96"/><polygon class="cls-2" points="40.41 458.72 49.48 438.58 31.19 442.44 40.41 458.72"/><polygon class="cls-2" points="31.36 440.45 49.65 436.58 40.44 420.32 31.36 440.45"/><polygon class="cls-2" points="60.28 413 51.07 396.73 41.99 416.88 60.28 413"/><polygon class="cls-2" points="20.73 464.04 39.02 460.17 29.81 443.9 20.73 464.04"/><polygon class="cls-2" points="38.97 418.92 29.34 440.28 0.59 417.73 0.59 411.87 38.97 418.92"/><polygon class="cls-2" points="28.54 442.08 19 463.24 0.59 430.41 0.59 420.17 28.54 442.08"/></g></g></svg>