<?xml version="1.0" encoding="UTF-8"?>
<svg width="96px" height="73px" viewBox="0 0 96 73" version="1.1" xmlns="http://www.w3.org/2000/svg" xmlns:xlink="http://www.w3.org/1999/xlink">
    <!-- Generator: Sketch 55.2 (78181) - https://sketchapp.com -->
    <title>Group 14</title>
    <desc>Created with Sketch.</desc>
    <g id="Welcome" stroke="none" stroke-width="1" fill="none" fill-rule="evenodd">
        <g id="Desktop-HD-Copy-4" transform="translate(-672.000000, -1911.000000)" fill="#A8A8A8" fill-rule="nonzero">
            <g id="Group-14" transform="translate(672.000000, 1911.000000)">
                <path d="M7.88929484,73 C5.904148,72.991655 4.20116046,71.6127012 3.82095817,69.7057504 L1.02465477,55.7165158 C0.951130926,55.4307479 1.04485973,55.1286025 1.26830598,54.9310785 C1.49175223,54.7335546 1.80838364,54.6729463 2.09140007,54.7735252 C2.37441649,54.874104 2.57754624,55.119426 2.61944274,55.4112479 L5.4103217,69.4031369 C5.53874993,70.0510559 5.92583184,70.6221173 6.48582605,70.9898268 C7.04582026,71.3575364 7.73250278,71.4915421 8.39376859,71.3621607 L92.3181296,55.3342673 C92.9811361,55.2097959 93.5659531,54.8314631 93.9427747,54.2832435 C94.3195964,53.735024 94.4572478,53.0622726 94.3251757,52.4143132 L92.4483164,42.9908251 C92.3747926,42.7050571 92.4685214,42.4029117 92.6919676,42.2053878 C92.9154139,42.0078638 93.2320453,41.9472555 93.5150617,42.0478344 C93.7980781,42.1484133 94.0012079,42.3937352 94.0431044,42.6855572 L95.9226759,52.1090453 C96.134479,53.1693296 95.9070894,54.2685325 95.2905639,55.1646782 C94.6740385,56.0608238 93.7189178,56.6804494 92.6354599,56.887152 L8.6948255,72.9230089 C8.42959721,72.9748108 8.15975199,73.0005985 7.88929484,73 Z" id="Path"></path>
                <path d="M56.1990064,56 L4.14790632,56 C1.85962232,56.0014802 0.00297711296,54.1604958 0,51.8870805 L0,4.11291859 C0.00297155768,1.84264036 1.85469051,0.00295225112 4.13981547,0 L21.0092264,0 C21.4560714,0 21.8183109,0.359885937 21.8183109,0.803827738 C21.8183109,1.24776954 21.4560714,1.60765548 21.0092264,1.60765548 L4.13981547,1.60765548 C2.74714853,1.60765548 1.61816891,2.72929998 1.61816891,4.11291859 L1.61816891,51.8870805 C1.61816891,53.2706991 2.74714853,54.3923436 4.13981547,54.3923436 L56.1909155,54.3923436 C56.6377605,54.3923436 57,54.7522296 57,55.1961714 C57,55.6401132 56.6377605,56 56.1909155,56 L56.1990064,56 Z" id="Path"></path>
                <path d="M89.8550298,56 L74.9007335,56 C74.4533321,56 74.0906416,55.6401141 74.0906416,55.1961722 C74.0906416,54.7522304 74.4533321,54.3923445 74.9007335,54.3923445 L89.8550298,54.3923445 C91.2494308,54.3923445 92.3798162,53.2707 92.3798162,51.8870813 L92.3798162,4.11291866 C92.3798162,2.72930002 91.2494308,1.6076555 89.8550298,1.6076555 L27.8100919,1.6076555 C27.3626905,1.6076555 27,1.24776955 27,0.803827751 C27,0.359885947 27.3626905,0 27.8100919,0 L89.8550298,0 C92.1430001,0.00295225116 93.9970247,1.84264039 94,4.11291866 L94,51.8870813 C93.9970247,54.1573596 92.1430001,55.9970477 89.8550298,56 Z" id="Path"></path>
                <path d="M9.50005115,31 C8.08445398,31 6.80824563,30.1472648 6.26652005,28.8394236 C5.72479446,27.5315823 6.02423523,26.0261919 7.02521359,25.0252136 C8.02619194,24.0242352 9.53158234,23.7247945 10.8394236,24.26652 C12.1472648,24.8082456 13,26.084454 13,27.5000512 C12.9971444,29.4318355 11.4318355,30.9971444 9.50005115,31 Z M9.50005115,25.0371242 C8.13981415,25.0371242 7.03712418,26.1398141 7.03712418,27.5000512 C7.03712418,28.8602882 8.13981415,29.9629781 9.50005115,29.9629781 C10.8602882,29.9629781 11.9629781,28.8602882 11.9629781,27.5000512 C11.9615492,26.1404065 10.8596958,25.0385531 9.50005115,25.0371242 Z" id="Shape"></path>
                <path d="M8.5,10 C7.11928813,10 6,8.88071187 6,7.5 C6,6.11928813 7.11928813,5 8.5,5 C9.88071187,5 11,6.11928813 11,7.5 C10.9985495,8.88011063 9.88011063,9.99854954 8.5,10 Z M8.5,5.52631579 C7.40996431,5.52631579 6.52631579,6.40996431 6.52631579,7.5 C6.52631579,8.59003569 7.40996431,9.47368421 8.5,9.47368421 C9.59003569,9.47368421 10.4736842,8.59003569 10.4736842,7.5 C10.4736842,6.40996431 9.59003569,5.52631579 8.5,5.52631579 Z" id="Shape"></path>
                <path d="M8.5,51 C7.11928813,51 6,49.8807119 6,48.5 C6,47.1192881 7.11928813,46 8.5,46 C9.88071187,46 11,47.1192881 11,48.5 C10.9985495,49.8801106 9.88011063,50.9985495 8.5,51 Z M8.5,46.5263158 C7.40996431,46.5263158 6.52631579,47.4099643 6.52631579,48.5 C6.52631579,49.5900357 7.40996431,50.4736842 8.5,50.4736842 C9.59003569,50.4736842 10.4736842,49.5900357 10.4736842,48.5 C10.4736842,47.4099643 9.59003569,46.5263158 8.5,46.5263158 Z" id="Shape"></path>
                <path d="M85.5,10 C84.1192881,10 83,8.88071187 83,7.5 C83,6.11928813 84.1192881,5 85.5,5 C86.8807119,5 88,6.11928813 88,7.5 C87.9985495,8.88011063 86.8801106,9.99854954 85.5,10 Z M85.5,5.52631579 C84.4099643,5.52631579 83.5263158,6.40996431 83.5263158,7.5 C83.5263158,8.59003569 84.4099643,9.47368421 85.5,9.47368421 C86.5900357,9.47368421 87.4736842,8.59003569 87.4736842,7.5 C87.4736842,6.40996431 86.5900357,5.52631579 85.5,5.52631579 Z" id="Shape"></path>
                <path d="M85.5,51 C84.1192881,51 83,49.8807119 83,48.5 C83,47.1192881 84.1192881,46 85.5,46 C86.8807119,46 88,47.1192881 88,48.5 C87.9985495,49.8801106 86.8801106,50.9985495 85.5,51 Z M85.5,46.5263158 C84.4099643,46.5263158 83.5263158,47.4099643 83.5263158,48.5 C83.5263158,49.5900357 84.4099643,50.4736842 85.5,50.4736842 C86.5900357,50.4736842 87.4736842,49.5900357 87.4736842,48.5 C87.4736842,47.4099643 86.5900357,46.5263158 85.5,46.5263158 Z" id="Shape"></path>
                <path d="M84.5000512,31 C83.084454,31 81.8082456,30.1472648 81.26652,28.8394236 C80.7247945,27.5315823 81.0242352,26.0261919 82.0252136,25.0252136 C83.0261919,24.0242352 84.5315823,23.7247945 85.8394236,24.26652 C87.1472648,24.8082456 88,26.084454 88,27.5000512 C87.9971444,29.4318355 86.4318355,30.9971444 84.5000512,31 Z M84.5000512,25.0371242 C83.1398141,25.0371242 82.0371242,26.1398141 82.0371242,27.5000512 C82.0371242,28.8602882 83.1398141,29.9629781 84.5000512,29.9629781 C85.8602882,29.9629781 86.9629781,28.8602882 86.9629781,27.5000512 C86.9615492,26.1404065 85.8596958,25.0385531 84.5000512,25.0371242 L84.5000512,25.0371242 Z" id="Shape"></path>
                <path d="M69.1818182,56 L61.8181818,56 C61.3663125,56 61,55.5522847 61,55 C61,54.4477153 61.3663125,54 61.8181818,54 L69.1818182,54 C69.6336875,54 70,54.4477153 70,55 C70,55.5522847 69.6336875,56 69.1818182,56 L69.1818182,56 Z" id="Path"></path>
                <rect id="Rectangle" x="23" y="18" width="4" height="3"></rect>
                <rect id="Rectangle" x="28" y="18" width="4" height="3"></rect>
                <rect id="Rectangle" x="33" y="18" width="4" height="3"></rect>
                <rect id="Rectangle" x="40" y="18" width="4" height="3"></rect>
                <rect id="Rectangle" x="45" y="18" width="4" height="3"></rect>
                <rect id="Rectangle" x="50" y="18" width="4" height="3"></rect>
                <rect id="Rectangle" x="57" y="18" width="4" height="3"></rect>
                <rect id="Rectangle" x="62" y="18" width="4" height="3"></rect>
                <rect id="Rectangle" x="67" y="18" width="4" height="3"></rect>
                <rect id="Rectangle" x="23" y="27" width="4" height="3"></rect>
                <rect id="Rectangle" x="28" y="27" width="4" height="3"></rect>
                <rect id="Rectangle" x="33" y="27" width="4" height="3"></rect>
                <rect id="Rectangle" x="40" y="27" width="4" height="3"></rect>
                <rect id="Rectangle" x="45" y="27" width="4" height="3"></rect>
                <rect id="Rectangle" x="50" y="27" width="4" height="3"></rect>
                <rect id="Rectangle" x="57" y="27" width="4" height="3"></rect>
                <rect id="Rectangle" x="62" y="27" width="4" height="3"></rect>
                <rect id="Rectangle" x="67" y="27" width="4" height="3"></rect>
                <rect id="Rectangle" x="23" y="35" width="4" height="3"></rect>
                <rect id="Rectangle" x="28" y="35" width="4" height="3"></rect>
                <rect id="Rectangle" x="33" y="35" width="4" height="3"></rect>
                <rect id="Rectangle" x="40" y="35" width="4" height="3"></rect>
                <rect id="Rectangle" x="45" y="35" width="4" height="3"></rect>
                <rect id="Rectangle" x="50" y="35" width="4" height="3"></rect>
                <rect id="Rectangle" x="57" y="35" width="4" height="3"></rect>
                <rect id="Rectangle" x="62" y="35" width="4" height="3"></rect>
                <rect id="Rectangle" x="67" y="35" width="4" height="3"></rect>
            </g>
        </g>
    </g>
</svg>