<svg xmlns="http://www.w3.org/2000/svg" viewBox="0 0 1439.51 438.89"><defs><style>.cls-1{fill:none;stroke:#e5dfdf;stroke-miterlimit:10;stroke-width:3px;}.cls-2{fill:#e5dfdf;}</style></defs><title>Asset 2</title><g id="Layer_2" data-name="Layer 2"><g id="Layer_1-2" data-name="Layer 1"><line class="cls-1" x1="1239.45" y1="38.23" x2="1239.45" y2="56.23"/><line class="cls-1" x1="1239.45" y1="16.66" x2="1239.45" y2="31.66"/><line class="cls-1" x1="1239.45" y1="0.53" x2="1239.45" y2="8.53"/><circle class="cls-1" cx="1239.45" cy="71.23" r="14.5"/><circle class="cls-1" cx="1219" cy="21.32" r="7.3"/><circle class="cls-1" cx="1219" cy="43.53" r="7.3"/><line class="cls-1" x1="368.36" y1="413.96" x2="368.36" y2="400.96"/><line class="cls-1" x1="368.36" y1="438.89" x2="368.36" y2="425.89"/><circle class="cls-1" cx="368.36" cy="385.96" r="14.5"/><circle class="cls-2" cx="397.57" cy="384.01" r="4.13"/><circle class="cls-2" cx="412.74" cy="384.01" r="4.13"/><circle class="cls-2" cx="427.91" cy="384.01" r="4.13"/><line class="cls-1" x1="1372.85" y1="377.52" x2="1341.51" y2="377.52"/><line class="cls-1" x1="1409.85" y1="377.52" x2="1382.39" y2="377.52"/><line class="cls-1" x1="1439.51" y1="377.52" x2="1418.23" y2="377.52"/><circle class="cls-1" cx="1326.51" cy="377.52" r="14.5"/><circle class="cls-2" cx="1297.29" cy="378.58" r="4.13"/><circle class="cls-2" cx="1282.1" cy="378.58" r="4.13"/><circle class="cls-2" cx="1265.7" cy="378.58" r="4.13"/><line class="cls-1" x1="70.69" y1="183.7" x2="99.21" y2="183.7"/><line class="cls-1" x1="37.18" y1="183.7" x2="63.42" y2="183.7"/><line class="cls-1" x1="1.21" y1="183.7" x2="30.49" y2="183.7"/><circle class="cls-1" cx="114.21" cy="183.7" r="14.5"/><circle class="cls-1" cx="90.56" cy="247.24" r="14.5"/><circle class="cls-2" cx="34.43" cy="164.75" r="4.13"/><circle class="cls-2" cx="50.79" cy="164.75" r="4.13"/><circle class="cls-2" cx="67.15" cy="164.75" r="4.13"/><polyline class="cls-1" points="65.97 205.41 91.14 213.25 91.14 234.28"/><polyline class="cls-1" points="21.42 196.89 38.56 196.89 56.62 202.5"/><line class="cls-1" y1="196.89" x2="11.88" y2="196.89"/><circle class="cls-1" cx="420.64" cy="84.38" r="14.5"/><circle class="cls-2" cx="434.34" cy="59.01" r="4.13"/><line class="cls-1" x1="420.94" y1="61.93" x2="420.94" y2="70.11"/><polyline class="cls-1" points="435.55 17.45 435.55 24.54 420.94 39.14 420.94 51.22"/><line class="cls-1" x1="435.55" x2="435.55" y2="11.88"/></g></g></svg>