<svg width="110" height="91" viewBox="0 0 110 91" fill="none" xmlns="http://www.w3.org/2000/svg">
<g clip-path="url(#clip0)">
<path d="M87.0898 43.2562C85.665 41.6181 83.1861 41.4427 81.5531 42.8644C79.9201 44.286 79.7513 46.7664 81.1762 48.4045L103.119 73.631C104.544 75.2691 107.023 75.4445 108.656 74.0228C110.289 72.6012 110.458 70.1208 109.033 68.4827L87.0898 43.2562Z" fill="#302B23"/>
<path d="M44.0042 8.30264H16.2429L30.1235 27.2712L44.0042 8.30264Z" fill="#E7F6FD"/>
<path d="M0.0209045 30.4919L43.7533 89.6772L29.1828 30.4919H0.0209045Z" fill="#B9E5F9"/>
<path d="M76.4899 8.30264H48.7286L62.6093 27.2712L76.4899 8.30264Z" fill="#B9E5F9"/>
<path d="M60.2262 28.0868L46.3664 9.13919L32.4857 28.0868H60.2262Z" fill="#B9E5F9"/>
<path d="M13.8598 9.13919L0 28.0868H27.7613L13.8598 9.13919Z" fill="#E7F6FD"/>
<path d="M92.7119 28.0868L78.8522 9.13919L64.9715 28.0868H92.7119Z" fill="#B9E5F9"/>
<path d="M31.6496 30.4919L46.3664 90.2L61.0623 30.4919H31.6496Z" fill="#B9E5F9"/>
<path d="M48.9795 89.6772L92.7119 30.4919H63.55L48.9795 89.6772Z" fill="#93D9F8"/>
<path d="M74.7892 49.6612L80.7773 45.8697L58.7422 11.0391L52.7541 14.8306L74.7892 49.6612Z" fill="white"/>
<path opacity="0.5" d="M82.9857 44.1178L84.9817 42.8539L62.9466 8.02331L60.9506 9.28715L82.9857 44.1178Z" fill="white"/>
<path d="M69.5287 56.822C63.9089 56.822 58.4155 55.1546 53.7431 52.0307C49.0708 48.9068 45.4295 44.4667 43.2799 39.2721C41.1302 34.0776 40.5689 28.3619 41.6667 22.8481C42.7646 17.3343 45.4724 12.2701 49.4476 8.29614C53.4228 4.32216 58.4869 1.61693 63.9991 0.522641C69.5114 -0.571645 75.2242 -0.00582023 80.415 2.14854C85.6057 4.3029 90.0412 7.94901 93.1604 12.6256C96.2795 17.3023 97.9422 22.7993 97.938 28.4215C97.9325 35.9557 94.9369 43.1794 89.6097 48.505C84.2825 53.8305 77.0597 56.822 69.5287 56.822ZM69.5287 8.3654C65.5637 8.3654 61.6877 9.54167 58.3909 11.7455C55.0941 13.9492 52.5245 17.0816 51.0072 20.7463C49.4898 24.4111 49.0928 28.4437 49.8664 32.3342C50.6399 36.2247 52.5493 39.7983 55.3529 42.6032C58.1566 45.4081 61.7288 47.3183 65.6176 48.0921C69.5064 48.866 73.5373 48.4688 77.2005 46.9508C80.8637 45.4328 83.9947 42.8622 86.1976 39.564C88.4004 36.2658 89.5762 32.3882 89.5762 28.4215C89.5706 23.104 87.4567 18.0058 83.6983 14.2458C79.9399 10.4858 74.8439 8.37093 69.5287 8.3654Z" fill="#474032"/>
<path d="M69.5287 53.7896C64.5085 53.7896 59.601 52.3 55.4272 49.5093C51.2533 46.7186 48.0005 42.7521 46.0803 38.1117C44.1601 33.4712 43.6588 28.3653 44.6397 23.4397C45.6206 18.5142 48.0397 13.9903 51.591 10.4404C55.1423 6.89054 59.6662 4.47412 64.5905 3.49684C69.5148 2.51957 74.6181 3.02534 79.255 4.95018C83.8919 6.87502 87.854 10.1324 90.6401 14.3104C93.4261 18.4883 94.911 23.3991 94.9069 28.4215C94.9013 35.1514 92.2251 41.6038 87.4664 46.3607C82.7077 51.1175 76.2558 53.7896 69.5287 53.7896ZM69.5287 5.12381C64.9228 5.12381 60.4204 6.4902 56.5907 9.05017C52.7611 11.6102 49.7762 15.2488 48.0136 19.5058C46.2511 23.7629 45.7899 28.4473 46.6884 32.9666C47.587 37.4859 49.8049 41.6372 53.0618 44.8954C56.3186 48.1536 60.4681 50.3725 64.9855 51.2715C69.5029 52.1704 74.1853 51.709 78.4405 49.9457C82.6958 48.1824 86.3328 45.1962 88.8917 41.365C91.4506 37.5337 92.8164 33.0293 92.8164 28.4215C92.8109 22.2442 90.3556 16.3216 85.9895 11.9537C81.6234 7.5857 75.7033 5.12935 69.5287 5.12381Z" fill="#231F19"/>
<path opacity="0.5" d="M69.5287 52.4511C64.7781 52.4511 60.1342 51.0418 56.1842 48.4014C52.2342 45.761 49.1556 42.008 47.3377 37.6172C45.5197 33.2264 45.044 28.3948 45.9708 23.7335C46.8976 19.0722 49.1852 14.7905 52.5444 11.4299C55.9036 8.06934 60.1834 5.78074 64.8427 4.85355C69.502 3.92636 74.3315 4.40223 78.7205 6.22097C83.1095 8.03972 86.8608 11.1197 89.5001 15.0713C92.1394 19.023 93.5481 23.6688 93.5481 28.4215C93.537 34.7911 91.0029 40.8967 86.5007 45.4008C81.9986 49.9048 75.8956 52.44 69.5287 52.4511ZM69.5287 6.44135C65.1632 6.44138 60.8959 7.73754 57.2673 10.1657C53.6387 12.5938 50.812 16.0446 49.1452 20.0811C47.4785 24.1176 47.0466 28.5582 47.9044 32.8404C48.7622 37.1226 50.871 41.0538 53.9637 44.1362C57.0564 47.2185 60.994 49.3132 65.2776 50.1551C69.5612 50.9969 73.9982 50.548 78.0266 48.8653C82.055 47.1825 85.4936 44.3415 87.9069 40.7021C90.3202 37.0628 91.5996 32.7888 91.583 28.4215C91.5913 25.5177 91.0271 22.6409 89.9227 19.9556C88.8183 17.2703 87.1954 14.8292 85.1469 12.7721C83.0984 10.7149 80.6646 9.08214 77.9846 7.96713C75.3046 6.85212 72.4312 6.27678 69.5287 6.27404V6.44135Z" fill="#231F19"/>
</g>
<defs>
<clipPath id="clip0">
<rect width="110" height="90.2" fill="white"/>
</clipPath>
</defs>
</svg>
