<svg width="110" height="94" viewBox="0 0 110 94" fill="none" xmlns="http://www.w3.org/2000/svg">
<g clip-path="url(#clip0)">
<path d="M44.2142 10.9013H16.3204L30.2673 29.9523L44.2142 10.9013Z" fill="#E7F6FD"/>
<path d="M0.0210266 33.2079L43.9622 92.6504L29.3222 33.2079H0.0210266Z" fill="#B9E5F9"/>
<path d="M60.9338 10.6282L53.2461 16.6775L50.0325 7.2045L60.9338 10.6282Z" fill="#B9E5F9"/>
<path d="M65.1346 5.56617L61.1648 6.30132L61.7949 2.22647L65.1346 5.56617Z" fill="#B9E5F9"/>
<path d="M55.7037 3.3397L51.7338 4.07485L52.364 0L55.7037 3.3397Z" fill="#B9E5F9"/>
<path d="M55.0315 6.00726L57.7201 3.00363L59.6945 6.61639L55.0315 6.00726Z" fill="#B9E5F9"/>
<path d="M60.5137 30.7924L46.5878 11.7415L32.6408 30.7924H60.5137Z" fill="#B9E5F9"/>
<path d="M13.9259 11.7415L0 30.7924H27.8938L13.9259 11.7415Z" fill="#E7F6FD"/>
<path d="M93.1544 30.7924L79.2285 11.7415L65.2816 30.7924H93.1544Z" fill="#B9E5F9"/>
<path d="M31.8007 33.2079L46.5878 93.1545L61.3538 33.2079H31.8007Z" fill="#B9E5F9"/>
<path d="M49.2133 92.6504L93.1545 33.2079H63.8533L49.2133 92.6504Z" fill="#93D9F8"/>
<path d="M75.1537 67.6132C91.0811 67.6132 103.993 54.7015 103.993 38.7741C103.993 22.8468 91.0811 9.93509 75.1537 9.93509C59.2263 9.93509 46.3147 22.8468 46.3147 38.7741C46.3147 54.7015 59.2263 67.6132 75.1537 67.6132Z" fill="#DAE6F5"/>
<path d="M75.6158 74.0405C74.112 74.0401 72.6101 73.9348 71.1209 73.7254C70.5779 73.652 70.0852 73.3693 69.7477 72.9376C69.4102 72.506 69.2548 71.9596 69.3145 71.4149C69.3926 70.8635 69.6865 70.3656 70.1316 70.0308C70.5767 69.696 71.1365 69.5517 71.688 69.6296C76.3891 70.2189 81.1629 69.6995 85.6273 68.1129C90.0917 66.5263 94.1226 63.9166 97.3974 60.4926C101.131 56.5299 103.763 51.6587 105.031 46.3635C106.298 41.0682 106.158 35.5334 104.623 30.3093C104.499 29.7789 104.587 29.2213 104.866 28.754C105.146 28.2867 105.596 27.9463 106.122 27.8046C106.648 27.6629 107.208 27.731 107.685 27.9946C108.162 28.2581 108.517 28.6964 108.677 29.2171C110.392 35.1636 110.519 41.4558 109.045 47.4667C107.571 53.4775 104.547 58.9971 100.275 63.4753C97.0617 66.7718 93.2295 69.4018 88.9981 71.2148C84.7666 73.0278 80.219 73.988 75.6158 74.0405Z" fill="#9DB9D6"/>
<path d="M75.1537 50.2635C81.4991 50.2635 86.6431 45.1195 86.6431 38.7741C86.6431 32.4287 81.4991 27.2847 75.1537 27.2847C68.8083 27.2847 63.6643 32.4287 63.6643 38.7741C63.6643 45.1195 68.8083 50.2635 75.1537 50.2635Z" fill="#9DB9D6"/>
</g>
<defs>
<clipPath id="clip0">
<rect width="110" height="93.1545" fill="white"/>
</clipPath>
</defs>
</svg>
