<svg xmlns="http://www.w3.org/2000/svg" viewBox="0 0 292.7 43.55"><defs><style>.cls-1{fill:#191919;}</style></defs><title>Asset 3</title><g id="Layer_2" data-name="Layer 2"><g id="Layer_1-2" data-name="Layer 1"><path class="cls-1" d="M0,42.49v-7.7H3.43v-26H0V1.12H22.07c9.82,0,14.5,3.67,14.5,10.12,0,5-1.36,7.4-5.8,9.18,4.26,1.18,7.81,4.31,7.81,10,0,8.35-4.67,12-16.09,12ZM15.68,8.93v8.88h3.61c3.14,0,4-1.72,4-4.56s-1.65-4.32-3.9-4.32Zm4.73,25.86a4.81,4.81,0,0,0,4.8-5.08c0-3-1.72-5.21-5-5.21H15.68V34.79Z"/><path class="cls-1" d="M40.65,1.12H60.29V8.93H56.62V34.62h3.67v7.87H40.65V34.62h3.73V8.93H40.65Z"/><path class="cls-1" d="M63.25,1.12H82V8.93H78.81V34.62h7.64V27.1h9.94V42.49H63.25V34.62H66.5V8.93H63.25Z"/><path class="cls-1" d="M99.34,1.12H118V8.93H114.9V34.62h7.64V27.1h9.94V42.49H99.34V34.62h3.26V8.93H99.34Z"/><path class="cls-1" d="M135.43,1.12h35.39V14.2H160.35V8.93h-8.94v10.3h11.24V27.1H151.41v7.52h6v7.87h-22V34.62h3.67V8.93h-3.67Z"/><path class="cls-1" d="M172.59,21.6c0-12.78,8.52-21.6,20.77-21.6,14.5,0,21.24,8.7,21.24,22s-7.45,21.54-20.83,21.54C181.41,43.55,172.59,36.39,172.59,21.6Zm27.22.41c0-7.16-1.95-12.9-6.51-12.9-3.61-.06-6.09,5.15-6.09,12.49,0,7.75,2.78,12.66,6.56,12.66S199.81,29.35,199.81,22Z"/><path class="cls-1" d="M217,42.49V34.62h3.67V8.93H217V1.12h18c14.32,0,22.49,8.82,22.49,20.12,0,13.49-8.17,21.25-22.72,21.25ZM235,8.93h-2.25V34.62H235c6.28-.12,8.88-6,8.88-13.38C243.89,14.91,241.29,8.93,235,8.93Z"/><path class="cls-1" d="M259.57,1.12h18.69V8.93h-3.13V34.62h7.63V27.1h9.94V42.49H259.57V34.62h3.25V8.93h-3.25Z"/></g></g></svg>