<svg xmlns="http://www.w3.org/2000/svg" viewBox="0 0 1923.42 1003.04"><defs><style>.cls-1{fill:#f9fafd;}.cls-2{fill:#d2ddfc;}</style></defs><title>Asset 5</title><g id="Layer_2" data-name="Layer 2"><g id="Layer_1-2" data-name="Layer 1"><path class="cls-1" d="M3.42,100s683,132,971,62,468-163,949-121v962H3.42Z"/><path class="cls-1" d="M1060.92,127.54s215.3-73,351.56-93.16a15.77,15.77,0,0,0,13.44-15.62h0a15.79,15.79,0,0,0-19-15.46C1349.52,15.22,1174.88,55.7,1060.92,127.54Z"/><polygon class="cls-2" points="1688.91 16.79 1676.33 30.46 1691.96 32.22 1688.91 16.79"/><polygon class="cls-2" points="1679.9 48.51 1728.88 53.8 1693.12 34.15 1679.9 48.51"/><polygon class="cls-2" points="1703.65 0.79 1691.06 14.46 1706.69 16.22 1703.65 0.79"/><polygon class="cls-2" points="1706.02 17.76 1690.4 16 1693.44 31.43 1706.02 17.76"/><polygon class="cls-2" points="1675.67 32.01 1678.71 47.43 1691.3 33.76 1675.67 32.01"/><polygon class="cls-2" points="1720.76 1.76 1705.13 0 1708.18 15.42 1720.76 1.76"/><polygon class="cls-2" points="1694.25 32.93 1730.31 52.74 1707.59 18.44 1694.25 32.93"/><polygon class="cls-2" points="1731.24 51.23 1721.93 2.85 1708.71 17.22 1731.24 51.23"/><polygon class="cls-2" points="1750.7 19.95 1739.86 15.07 1741.94 24.92 1750.7 19.95"/><polygon class="cls-2" points="1729.61 20.88 1736.28 51.7 1741 26.02 1729.61 20.88"/><polygon class="cls-2" points="1763.4 25.68 1752.55 20.79 1754.64 30.64 1763.4 25.68"/><polygon class="cls-2" points="1753.56 30.55 1751.48 20.7 1742.72 25.66 1753.56 30.55"/><polygon class="cls-2" points="1738.79 14.98 1730.03 19.94 1740.87 24.83 1738.79 14.98"/><polygon class="cls-2" points="1766.26 36.27 1764.18 26.42 1755.42 31.38 1766.26 36.27"/><polygon class="cls-2" points="1741.97 26.45 1737.21 52.36 1753.47 31.63 1741.97 26.45"/><polygon class="cls-2" points="1738.32 52.62 1765.83 37.2 1754.44 32.07 1738.32 52.62"/><polygon class="cls-2" points="68.75 320.36 43.35 296.98 40.09 326.02 68.75 320.36"/><polygon class="cls-2" points="9.81 303.62 0 394.59 36.49 328.18 9.81 303.62"/><polygon class="cls-2" points="98.47 347.73 73.08 324.35 69.8 353.38 98.47 347.73"/><polygon class="cls-2" points="66.94 352.14 70.2 323.13 41.55 328.77 66.94 352.14"/><polygon class="cls-2" points="40.48 295.76 11.83 301.41 37.22 324.79 40.48 295.76"/><polygon class="cls-2" points="96.67 379.51 99.93 350.49 71.28 356.14 96.67 379.51"/><polygon class="cls-2" points="38.76 330.26 1.95 397.26 65.68 355.05 38.76 330.26"/><polygon class="cls-2" points="4.77 398.99 94.63 381.7 67.95 357.14 4.77 398.99"/><polygon class="cls-2" points="62.86 435.14 71.94 414.99 53.64 418.87 62.86 435.14"/><polygon class="cls-2" points="61.14 395.96 3.89 408.35 51.6 417.12 61.14 395.96"/><polygon class="cls-2" points="52.23 458.72 61.31 438.58 43.02 442.44 52.23 458.72"/><polygon class="cls-2" points="43.19 440.45 61.48 436.58 52.26 420.32 43.19 440.45"/><polygon class="cls-2" points="72.11 413 62.89 396.73 53.81 416.88 72.11 413"/><polygon class="cls-2" points="32.56 464.04 50.85 460.17 41.63 443.9 32.56 464.04"/><polygon class="cls-2" points="50.8 418.92 2.66 410.07 41.17 440.28 50.8 418.92"/><polygon class="cls-2" points="2.18 412.14 30.82 463.24 40.36 442.08 2.18 412.14"/></g></g></svg>