<svg xmlns="http://www.w3.org/2000/svg" viewBox="0 0 1920 1003.04"><defs><style>.cls-1{fill:#f9fafd;}.cls-2{fill:#d2ddfc;}</style></defs><title>Asset 4</title><g id="Layer_2" data-name="Layer 2"><g id="Layer_1-2" data-name="Layer 1"><path class="cls-1" d="M0,100s683,132,971,62S1439-1,1920,41v962H0Z"/><path class="cls-1" d="M1057.5,127.54s215.3-73,351.55-93.16a15.77,15.77,0,0,0,13.45-15.62h0a15.79,15.79,0,0,0-19-15.46C1346.09,15.22,1171.45,55.7,1057.5,127.54Z"/><polygon class="cls-2" points="1685.49 16.79 1672.91 30.46 1688.54 32.22 1685.49 16.79"/><polygon class="cls-2" points="1676.48 48.51 1725.45 53.8 1689.7 34.15 1676.48 48.51"/><polygon class="cls-2" points="1700.22 0.79 1687.64 14.46 1703.27 16.22 1700.22 0.79"/><polygon class="cls-2" points="1702.6 17.76 1686.98 16 1690.02 31.43 1702.6 17.76"/><polygon class="cls-2" points="1672.25 32.01 1675.29 47.43 1687.87 33.76 1672.25 32.01"/><polygon class="cls-2" points="1717.33 1.76 1701.71 0 1704.75 15.42 1717.33 1.76"/><polygon class="cls-2" points="1690.82 32.93 1726.89 52.74 1704.17 18.44 1690.82 32.93"/><polygon class="cls-2" points="1727.82 51.23 1718.51 2.85 1705.29 17.22 1727.82 51.23"/><polygon class="cls-2" points="1747.28 19.95 1736.44 15.07 1738.52 24.92 1747.28 19.95"/><polygon class="cls-2" points="1726.19 20.88 1732.86 51.7 1737.58 26.02 1726.19 20.88"/><polygon class="cls-2" points="1759.98 25.68 1749.13 20.79 1751.21 30.64 1759.98 25.68"/><polygon class="cls-2" points="1750.14 30.55 1748.06 20.7 1739.3 25.66 1750.14 30.55"/><polygon class="cls-2" points="1735.36 14.98 1726.61 19.94 1737.45 24.83 1735.36 14.98"/><polygon class="cls-2" points="1762.84 36.27 1760.75 26.42 1752 31.38 1762.84 36.27"/><polygon class="cls-2" points="1738.55 26.45 1733.79 52.36 1750.05 31.63 1738.55 26.45"/><polygon class="cls-2" points="1734.9 52.62 1762.41 37.2 1751.02 32.07 1734.9 52.62"/></g></g></svg>