<svg width="110" height="104" viewBox="0 0 110 104" fill="none" xmlns="http://www.w3.org/2000/svg">
<g clip-path="url(#clip0)">
<path d="M61.0107 0H33.1009L47.0558 18.9338L61.0107 0Z" fill="#F9EDED"/>
<path d="M93.6702 0H65.7814L79.7153 18.9338L93.6702 0Z" fill="#FCDFDF"/>
<path d="M77.3405 19.7479L63.3856 0.834991L49.4517 19.7479H77.3405Z" fill="#FCDFDF"/>
<path d="M30.726 0.834991L16.7921 19.7479H44.6809L30.726 0.834991Z" fill="#F9EDED"/>
<path d="M110 19.7479L96.0451 0.834991L82.1112 19.7479H110Z" fill="#FCDFDF"/>
<path d="M44.2396 22.2529H16.3298L30.2847 41.1867L44.2396 22.2529Z" fill="#E7F6FD"/>
<path d="M0.021019 44.4223L43.9874 103.499L29.3389 44.4223H0.021019Z" fill="#B9E5F9"/>
<path d="M76.8991 22.2529H48.9893L62.9442 41.1867L76.8991 22.2529Z" fill="#B9E5F9"/>
<path d="M60.5483 42.0217L46.6144 23.0879L32.6595 42.0217H60.5483Z" fill="#B9E5F9"/>
<path d="M13.9339 23.0879L0 42.0217H27.9098L13.9339 23.0879Z" fill="#E7F6FD"/>
<path d="M93.2079 42.0217L79.274 23.0879L65.3191 42.0217H93.2079Z" fill="#B9E5F9"/>
<path d="M81.5017 22.4825L95.4356 41.3954L109.391 22.4825H81.5017Z" fill="#FCDFDF"/>
<path d="M31.8189 44.4223L46.6144 104.021L61.389 44.4223H31.8189Z" fill="#B9E5F9"/>
<path d="M49.2415 103.499L93.2079 44.4223H63.8899L49.2415 103.499Z" fill="#93D9F8"/>
</g>
<defs>
<clipPath id="clip0">
<rect width="110" height="104" fill="white"/>
</clipPath>
</defs>
</svg>
