<svg xmlns="http://www.w3.org/2000/svg" viewBox="0 0 104.64 104.58"><defs><style>.cls-1{fill:#f5d4a9;}.cls-2{fill:#f2b770;}.cls-3{fill:#c2d0d3;}.cls-4,.cls-9{fill:#fff;}.cls-5{fill:#ede6e6;}.cls-6{fill:#303030;}.cls-7{fill:#92bec5;}.cls-8{fill:#9fbcc1;}.cls-10,.cls-9{opacity:0;}.cls-10{fill:#fdeedc;}</style></defs><title>Asset 66</title><g id="Layer_2" data-name="Layer 2"><g id="Layer_1-2" data-name="Layer 1"><rect class="cls-1" x="65.17" y="87.35" width="7.01" height="9.35"/><rect class="cls-2" x="65.17" y="87.35" width="7.01" height="3.63"/><rect class="cls-1" x="28.65" y="87.35" width="7.01" height="9.35"/><rect class="cls-2" x="28.65" y="87.35" width="7.01" height="3.63"/><path class="cls-3" d="M58.22,13.23h-16A18.28,18.28,0,0,0,24,32.24L26.2,88.37h48l2.24-56.13A18.27,18.27,0,0,0,58.22,13.23Z"/><path class="cls-4" d="M75,23.19a19.71,19.71,0,0,0-14-5.72H44.05c-11,0-19.73,8.63-19.3,19l2.19,51.76H26.6L24.36,32.09a18.28,18.28,0,0,1,18.26-19h16A18.24,18.24,0,0,1,75,23.19Z"/><path class="cls-5" d="M58.22,70.29h-16c-10.38,0-18.67,2.07-18.26,4.55L26.2,88.28h48l2.24-13.44C76.9,72.36,68.6,70.29,58.22,70.29Z"/><path class="cls-4" d="M76,74.65l-.27,3.64c-1.81-2-9.08-5.42-17.84-5.42h-16c-9.22,0-16.81,3.63-18.08,5.74l-.33-4c-.42-2.49,7.88-4.55,18.26-4.55h16C68.16,70.1,76.46,72.16,76,74.65Z"/><path class="cls-6" d="M74.67,88.87H25.78l-2.31-14a1.75,1.75,0,0,1,.47-1.47c1.85-2.18,9.37-3.71,18.28-3.71h16c8.92,0,16.44,1.53,18.29,3.71A1.78,1.78,0,0,1,77,74.87Zm-48-1h47.2L76,74.71a.83.83,0,0,0-.25-.66c-1.37-1.63-8-3.36-17.52-3.36h-16c-9.53,0-16.14,1.73-17.52,3.36a.83.83,0,0,0-.25.66Z"/><path class="cls-6" d="M36.16,97.2h-8V86.85h8Zm-7-1h6V87.85h-6Z"/><path class="cls-6" d="M72.68,97.2h-8V86.85h8Zm-7-1h6V87.85h-6Z"/><path class="cls-6" d="M74.92,88.48h-49L23.65,31.86A18.79,18.79,0,0,1,42.41,12.34h16A18.78,18.78,0,0,1,77.18,31.86Zm-48-1H74l2.22-55.65A17.79,17.79,0,0,0,58.42,13.34h-16A17.79,17.79,0,0,0,24.65,31.83Z"/><path class="cls-3" d="M72.51,49.43V79.29H28.32V49.43a4.75,4.75,0,0,0-4.74-4.75h0a4.75,4.75,0,0,0-4.75,4.75V82.52a6.27,6.27,0,0,0,6.27,6.27H75.73A6.27,6.27,0,0,0,82,82.52V49.43a4.75,4.75,0,0,0-4.74-4.75h0A4.75,4.75,0,0,0,72.51,49.43Z"/><path class="cls-3" d="M72.51,49.43V79.29H28.32V49.43a4.75,4.75,0,0,0-4.74-4.75h0a4.75,4.75,0,0,0-4.75,4.75V82.52a6.27,6.27,0,0,0,6.27,6.27H75.73A6.27,6.27,0,0,0,82,82.52V49.43a4.75,4.75,0,0,0-4.74-4.75h0A4.75,4.75,0,0,0,72.51,49.43Z"/><path class="cls-4" d="M82,49.63v2.53a4.75,4.75,0,1,0-9.5,0V49.63a4.75,4.75,0,0,1,9.5,0Z"/><path class="cls-4" d="M28.33,49.63v2.53a4.75,4.75,0,1,0-9.5,0V49.63a4.75,4.75,0,0,1,9.5,0Z"/><path class="cls-7" d="M81.81,77.94v4.39a6.27,6.27,0,0,1-6.27,6.27H24.9a6.27,6.27,0,0,1-6.27-6.27V77.94a6.27,6.27,0,0,0,6.27,6.27H75.54A6.27,6.27,0,0,0,81.81,77.94Z"/><path class="cls-6" d="M75.73,89H25.1a6.78,6.78,0,0,1-6.77-6.77V49.14a5.25,5.25,0,1,1,10.49,0V78.5H72V49.14a5.25,5.25,0,1,1,10.49,0V82.23A6.78,6.78,0,0,1,75.73,89ZM23.58,44.89a4.25,4.25,0,0,0-4.25,4.25V82.23A5.78,5.78,0,0,0,25.1,88H75.73a5.78,5.78,0,0,0,5.77-5.77V49.14a4.25,4.25,0,1,0-8.49,0V79.5H27.82V49.14A4.25,4.25,0,0,0,23.58,44.89Z"/><circle class="cls-3" cx="42.66" cy="32.73" r="1.97"/><circle class="cls-3" cx="60.19" cy="32.73" r="1.97"/><circle class="cls-3" cx="42.66" cy="45.29" r="1.97"/><circle class="cls-3" cx="60.19" cy="45.29" r="1.97"/><circle class="cls-4" cx="34.32" cy="20.06" r="0.97"/><circle class="cls-4" cx="33.1" cy="22.07" r="0.35"/><circle class="cls-4" cx="34.32" cy="23.18" r="0.57"/><circle class="cls-4" cx="35.03" cy="22.23" r="0.37"/><circle class="cls-4" cx="36.3" cy="21.07" r="0.39"/><circle class="cls-4" cx="36.63" cy="18.61" r="0.67"/><circle class="cls-4" cx="37.34" cy="19.89" r="0.32"/><circle class="cls-4" cx="32.12" cy="20.78" r="0.63"/><circle class="cls-4" cx="30.47" cy="23.02" r="0.99"/><circle class="cls-4" cx="32.43" cy="23.43" r="0.56"/><circle class="cls-4" cx="31.88" cy="21.99" r="0.19"/><circle class="cls-4" cx="36.97" cy="23.07" r="0.22"/><circle class="cls-4" cx="37.58" cy="22.02" r="0.19"/><circle class="cls-4" cx="37.96" cy="21.2" r="0.1"/><circle class="cls-4" cx="36.25" cy="20.16" r="0.06"/><circle class="cls-4" cx="38.14" cy="18.18" r="0.47"/><circle class="cls-4" cx="36.36" cy="25.27" r="0.43"/><circle class="cls-8" cx="42.66" cy="32.74" r="1.97"/><circle class="cls-8" cx="60.19" cy="32.74" r="1.97"/><circle class="cls-8" cx="42.66" cy="45.3" r="1.97"/><circle class="cls-8" cx="60.19" cy="45.3" r="1.97"/><path class="cls-6" d="M77.26,51.74a.37.37,0,0,1-.38-.37v-7a.38.38,0,0,1,.75,0v7A.37.37,0,0,1,77.26,51.74Z"/><path class="cls-6" d="M23.58,52.27a.37.37,0,0,1-.38-.37v-7a.38.38,0,1,1,.75,0v7A.37.37,0,0,1,23.58,52.27Z"/><path class="cls-6" d="M42.66,35.22A2.35,2.35,0,1,1,45,32.88,2.34,2.34,0,0,1,42.66,35.22Zm0-3.94a1.6,1.6,0,1,0,1.6,1.6A1.6,1.6,0,0,0,42.66,31.28Z"/><path class="cls-6" d="M60.19,35.22a2.35,2.35,0,1,1,2.35-2.34A2.35,2.35,0,0,1,60.19,35.22Zm0-3.94a1.6,1.6,0,1,0,1.6,1.6A1.6,1.6,0,0,0,60.19,31.28Z"/><path class="cls-6" d="M42.66,47.78A2.35,2.35,0,1,1,45,45.44,2.34,2.34,0,0,1,42.66,47.78Zm0-3.94a1.6,1.6,0,1,0,1.6,1.6A1.6,1.6,0,0,0,42.66,43.84Z"/><path class="cls-6" d="M60.19,47.78a2.35,2.35,0,1,1,2.35-2.34A2.35,2.35,0,0,1,60.19,47.78Zm0-3.94a1.6,1.6,0,1,0,1.6,1.6A1.6,1.6,0,0,0,60.19,43.84Z"/><rect class="cls-9" y="96.98" width="104.35" height="7.6"/><rect class="cls-10" x="0.29" width="104.35" height="7.6" transform="translate(104.94 7.6) rotate(180)"/><circle class="cls-4" cx="26.37" cy="49.77" r="0.36"/><circle class="cls-4" cx="25.46" cy="49.11" r="0.15"/></g></g></svg>