<svg xmlns="http://www.w3.org/2000/svg" viewBox="0 0 104.35 104.58"><defs><style>.cls-1,.cls-5{fill:#fff;}.cls-1,.cls-2{opacity:0;}.cls-2{fill:#fdeedc;}.cls-3{fill:#e9bf8b;}.cls-4{fill:#f5d4a9;}.cls-6{fill:#d7a26f;}.cls-7{fill:#303030;}.cls-8{fill:#fbfbfb;}.cls-9{fill:#f3e6d8;}.cls-10{fill:#d8dfe1;}.cls-11,.cls-12,.cls-13{fill:#afc1c5;}.cls-12{opacity:0.44;}.cls-13{opacity:0.41;}</style></defs><title>Asset 69</title><g id="Layer_2" data-name="Layer 2"><g id="Layer_1-2" data-name="Layer 1"><rect class="cls-1" y="96.98" width="104.35" height="7.6"/><rect class="cls-2" width="104.35" height="7.6" transform="translate(104.35 7.6) rotate(180)"/><rect class="cls-3" x="0.36" y="52" width="102.76" height="2.6"/><rect class="cls-4" x="11.35" y="53.04" width="5.44" height="43.56"/><path class="cls-5" d="M13.85,88.29V62.81a1.73,1.73,0,0,0-1.73-1.74h0V88.58S13.81,88.34,13.85,88.29Z"/><circle class="cls-5" cx="13.85" cy="66.51" r="0.68"/><circle class="cls-5" cx="13.85" cy="70.6" r="0.68"/><circle class="cls-5" cx="13.89" cy="68.89" r="0.34"/><circle class="cls-5" cx="14.19" cy="66.86" r="1.02"/><circle class="cls-5" cx="14.97" cy="69.67" r="0.24"/><circle class="cls-5" cx="15.79" cy="68.65" r="0.19"/><circle class="cls-5" cx="14.81" cy="68.65" r="0.22"/><circle class="cls-5" cx="13.89" cy="64.71" r="0.48"/><circle class="cls-5" cx="15.35" cy="64.23" r="0.36"/><circle class="cls-5" cx="15.42" cy="66.08" r="0.42"/><circle class="cls-5" cx="15.87" cy="67.54" r="0.14"/><circle class="cls-5" cx="16.11" cy="69.43" r="0.18"/><circle class="cls-5" cx="15.36" cy="67.87" r="0.11"/><circle class="cls-5" cx="16.27" cy="66.91" r="0.11"/><circle class="cls-5" cx="14.68" cy="65.14" r="0.15"/><rect class="cls-4" x="86.48" y="53.04" width="5.44" height="43.56"/><rect class="cls-6" x="12.03" y="55.08" width="4.76" height="1.36"/><rect class="cls-6" x="86.89" y="55.08" width="4.76" height="1.36"/><path class="cls-7" d="M17.51,97.31h-6.2V53h6.2Zm-5.45-.75h4.7V53.75h-4.7Z"/><path class="cls-7" d="M92.37,97.31h-6.2V53h6.2Zm-5.45-.75h4.7V53.75h-4.7Z"/><rect class="cls-4" x="0.46" y="46.23" width="102.76" height="8.17"/><rect class="cls-3" x="0.36" y="52" width="102.76" height="2.6"/><path class="cls-5" d="M1.14,48.27H26.63a1.73,1.73,0,0,0,1.73-1.73H.85S1.09,48.23,1.14,48.27Z"/><path class="cls-7" d="M103.94,55.12H.42V46.2H103.94ZM1.17,54.37h102V47H1.17Z"/><rect class="cls-7" x="1.05" y="50.07" width="9.62" height="0.75"/><rect class="cls-7" x="13.3" y="50.07" width="2.82" height="0.75"/><circle class="cls-5" cx="22.92" cy="48.27" r="0.68"/><circle class="cls-5" cx="18.83" cy="48.27" r="0.68"/><circle class="cls-5" cx="20.54" cy="48.31" r="0.34"/><circle class="cls-5" cx="22.58" cy="48.62" r="1.02"/><circle class="cls-5" cx="19.76" cy="49.4" r="0.24"/><circle class="cls-5" cx="20.78" cy="50.21" r="0.19"/><circle class="cls-5" cx="20.78" cy="49.23" r="0.22"/><circle class="cls-5" cx="24.72" cy="48.31" r="0.48"/><circle class="cls-5" cx="25.2" cy="49.77" r="0.36"/><circle class="cls-5" cx="23.35" cy="49.84" r="0.42"/><circle class="cls-5" cx="21.89" cy="50.29" r="0.14"/><circle class="cls-5" cx="20" cy="50.53" r="0.18"/><circle class="cls-5" cx="21.56" cy="49.78" r="0.11"/><circle class="cls-5" cx="22.52" cy="50.69" r="0.11"/><circle class="cls-5" cx="24.29" cy="49.11" r="0.15"/><polygon class="cls-8" points="49.98 69.11 43.28 57.5 36.58 45.89 49.98 45.89 63.39 45.89 56.69 57.5 49.98 69.11"/><polygon class="cls-9" points="63.26 45.63 49.85 68.85 43.15 57.24 36.45 45.63 38.75 45.63 43.15 53.26 49.85 64.87 56.56 53.26 60.96 45.63 63.26 45.63"/><path class="cls-7" d="M49.85,69.73,35.79,45.38H63.91ZM37.09,46.13l12.76,22.1,12.76-22.1Z"/><polygon class="cls-10" points="21.73 46.38 17.02 46.38 15.2 34.48 23.55 34.48 21.73 46.38"/><polygon class="cls-11" points="23.35 34.08 21.53 45.99 19.75 45.99 21.56 34.17 15.01 34.17 15 34.08 23.35 34.08"/><polygon class="cls-12" points="21.69 34.08 19.87 45.99 18.09 45.99 19.91 34.17 15.19 34.17 15.18 34.08 21.69 34.08"/><path class="cls-5" d="M16.64,41.22a1,1,0,0,1-1-.85l-.8-5.32a1,1,0,0,1,2-.29l.79,5.32a1,1,0,0,1-.84,1.13Z"/><path class="cls-7" d="M22,46.76H16.6L14.66,34.1h9.23ZM17.25,46h4.06L23,34.85H15.54Z"/><circle class="cls-5" cx="17.1" cy="36.18" r="0.41"/><circle class="cls-5" cx="17.66" cy="37.26" r="0.1"/><circle class="cls-5" cx="17.96" cy="36.52" r="0.12"/><circle class="cls-5" cx="16.97" cy="36.54" r="0.26"/><circle class="cls-5" cx="17.85" cy="38.39" r="0.25"/><circle class="cls-5" cx="18.41" cy="37.72" r="0.2"/><path class="cls-10" d="M37.44,32a1.76,1.76,0,0,0-1.73,2,14.32,14.32,0,0,0,28.36,0,1.76,1.76,0,0,0-1.73-2Z"/><path class="cls-11" d="M64.07,33.89A14.32,14.32,0,0,1,49.89,46.21,13.56,13.56,0,0,1,48,46.08,14.32,14.32,0,0,0,60.24,33.89a1.74,1.74,0,0,0-1.73-2h3.83A1.75,1.75,0,0,1,64.07,33.89Z"/><path class="cls-13" d="M61.31,33.89A14.31,14.31,0,0,1,47.14,46.21a13.56,13.56,0,0,1-1.92-.13A14.31,14.31,0,0,0,57.48,33.89a1.74,1.74,0,0,0-1.73-2h3.84A1.74,1.74,0,0,1,61.31,33.89Z"/><path class="cls-5" d="M43.15,31.94a2.56,2.56,0,0,1-1.82,2.12,5.15,5.15,0,0,1-1.69-.2,1.57,1.57,0,0,0-1.56.45,1.41,1.41,0,0,0-.2.77,8.27,8.27,0,0,0,.3,1.92,3.07,3.07,0,0,1-.09,1.92,1.38,1.38,0,0,1-.34.46,14.35,14.35,0,0,1-1.94-5.44,1.76,1.76,0,0,1,1.73-2Z"/><path class="cls-7" d="M49.79,46.78A14.74,14.74,0,0,1,35.24,34.14a2.12,2.12,0,0,1,.51-1.69,2.08,2.08,0,0,1,1.59-.73h24.9a2.11,2.11,0,0,1,1.6.73,2.15,2.15,0,0,1,.5,1.69A14.74,14.74,0,0,1,49.79,46.78ZM37.34,32.47A1.36,1.36,0,0,0,36,34,13.94,13.94,0,0,0,63.6,34a1.4,1.4,0,0,0-.33-1.09,1.37,1.37,0,0,0-1-.47Z"/></g></g></svg>